<?xml version="1.0" encoding="utf-8"?>
<!-- Generator: Adobe Illustrator 24.1.2, SVG Export Plug-In . SVG Version: 6.00 Build 0)  -->
<svg version="1.1" id="Layer_1" xmlns="http://www.w3.org/2000/svg" xmlns:xlink="http://www.w3.org/1999/xlink" x="0px" y="0px"
	 viewBox="0 0 850.39 850.39" style="enable-background:new 0 0 850.39 850.39;" xml:space="preserve">
<style type="text/css">
	.st0{fill:#3182A0;}
	.st1{fill:#F7B343;}
	.st2{fill:#2EBCBE;}
</style>
<g>
	<g>
		<path class="st0" d="M101.21,752.12h-6.69c-0.67,0-2.72-1.09-2.72,28.67c0,22.59,1.18,21.44,2.16,21.44h10.21
			c7.96,0,11.07-8.73,11.07-19.15C115.24,760.49,106.22,752.12,101.21,752.12z M102.75,794.52c-2.21,0-4.81-1.56-4.81-15.12v-8.61
			c0-3.8,0.56-11.57,3.31-11.57c2.56,0,7.61,6.51,7.61,21.39C108.86,791.45,104.88,794.52,102.75,794.52z"/>
		<path class="st0" d="M136.16,790.55c-0.94,0-3.35,3.97-7.25,3.97c-3.31,0-4.96-3.49-4.96-8.31c0-5.96,2.91-8.19,4.92-8.19
			c1.54,0,3.04,1.2,3.43,1.2c0.47,0,2.68-9.82,2.68-9.88c0-1.02-1.3-1.26-1.77-1.26c-3.31,0-6.11,2.83-7.37,2.83
			c-1.11,0-1.26-2.17-1.26-3.43c0-5.79,2.87-8.26,5.59-8.26c3.86,0,5.05,2.84,5.72,2.84c0.51,0,3.03-8.44,3.03-8.92
			c0-1.2-1.42-1.02-1.89-1.02H121.5c-1.14,0-3.31,27.83-3.31,35.9c0.2,12.22-0.43,14.33,1.66,14.21h18.08c0.48,0,1.46,0.24,1.46-0.9
			C139.39,800.73,136.75,790.55,136.16,790.55z"/>
		<path class="st0" d="M158.81,789.4c-0.98,0-3.19,5.12-6.81,5.12c-2.17,0-4.53-1.99-4.53-10.3c0-16.62,4.57-29.57,4.57-30.9
			c0-1.08-0.48-1.2-0.75-1.2h-6.27c-1.14,0-3.31,27.83-3.31,35.9c0.2,12.22-0.43,14.33,1.66,14.21h16.04c0.47,0,1.69,0.3,1.69-0.9
			C161.1,801.03,159.56,789.4,158.81,789.4z"/>
		<path class="st0" d="M172.37,753.08c0-1.14-0.99-0.96-1.5-0.96h-4.26c-0.67,0-2.71-1.09-2.71,28.67c0,22.59,1.18,21.44,2.16,21.44
			h5.6c0.35,0,0.59-0.06,0.59-0.66c0-0.84-1.97-10.78-1.97-26.2C170.28,763.74,172.37,753.68,172.37,753.08z"/>
		<path class="st0" d="M197.31,775.25c-0.48,0-7.25,3.73-7.25,4.51c0,1.57,3.11,1.99,3.11,6.87c0,4.22-2.64,5.78-5.08,5.78
			c-5.16,0-6.39-6.92-6.39-13.49c0-8.37,2.17-19.15,8.4-19.15c5,0,2.83,5.66,4.45,5.66c2.48,0,4.06-1.99,4.06-5.48
			c0-6.51-5.28-8.74-8.71-8.74c-9.42,0-14.58,14.64-14.58,28.86c0,13.43,4.53,23.07,13.67,23.07c4.89,0,10.01-3.5,10.01-11.39
			C199,789.94,198.1,775.25,197.31,775.25z"/>
		<path class="st0" d="M222.92,752.12h-5.17c-0.23,0-1.41-0.18-1.41,0.6c0,0.78,3.46,9.4,3.46,15.12c0,2.53-1.53,1.87-3.46,1.87
			c-5.36,0-5.36,1.8-6.58,1.8c-0.6,0-0.95-1.44-0.95-2.95c0-6.38,2.68-15.12,2.68-15.9c0-0.72-0.95-0.54-1.18-0.54h-5.36
			c-1.89,0-2.68,25.78-2.68,30.17c0,2.59,0,19.94,1.1,19.94h5.79c0.32,0,1.27,0.24,1.27-0.6c0-0.24-0.08-0.66-0.16-0.9
			c-1.11-3.98-1.62-8.68-1.62-13.01c0-6.99,4.26-9.88,8.24-9.88c2.64,0,3.7,1.38,3.7,5.48c0,5.96-1.14,11.62-2.52,17.17
			c-0.08,0.24-0.12,0.54-0.12,0.84c0,0.96,1.07,0.9,1.46,0.9h5.67c1.26,0,1.26-17.04,1.26-19.94
			C226.34,769.46,224.41,752.12,222.92,752.12z"/>
		<path class="st0" d="M241,751.21c-5.32,0-10.64,2.17-11.03,3.32c-0.59,1.68-1.66,9.15-1.66,11.02c0,1.69,0.2,1.44,0.55,1.44
			c0.67,0,5.6-6.92,8.4-6.92c0.98,0,0.78,1.08,0.78,2.89c0,2.23-1.73,10.78-1.73,24.21c0,17.47,1.73,15.06,2.48,15.06h4.14
			c0.51,0,1.93,0.3,1.93-1.02c0-1.09-2.17-8.68-2.17-24.16c0-5.54,0.4-17.04,2.8-17.04c2.84,0,4.45,5,5.12,5
			c0.44,0,2.37-5.73,2.37-8.38C252.98,753.8,247.34,751.21,241,751.21z"/>
		<path class="st0" d="M277.09,751.21c-5.32,0-10.64,2.17-11.04,3.32c-0.59,1.68-1.65,9.15-1.65,11.02c0,1.69,0.2,1.44,0.55,1.44
			c0.67,0,5.6-6.92,8.39-6.92c0.99,0,0.79,1.08,0.79,2.89c0,2.23-1.73,10.78-1.73,24.21c0,17.47,1.73,15.06,2.48,15.06h4.14
			c0.51,0,1.93,0.3,1.93-1.02c0-1.09-2.17-8.68-2.17-24.16c0-5.54,0.4-17.04,2.8-17.04c2.84,0,4.45,5,5.12,5
			c0.43,0,2.37-5.73,2.37-8.38C289.07,753.8,283.43,751.21,277.09,751.21z"/>
		<path class="st0" d="M303.09,751.21c-7.37,0-13.04,17.29-13.04,32.77c0,10.42,3.11,19.16,11.07,19.16h3.94
			c7.96,0,11.07-8.74,11.07-19.16C316.13,768.5,310.46,751.21,303.09,751.21z M303.09,792.41c-4.18,0-6.66-2.71-6.66-9.75
			c0-13.32,4.02-21.69,6.66-21.69s6.66,8.37,6.66,21.69C309.75,789.7,307.27,792.41,303.09,792.41z"/>
		<path class="st0" d="M340.01,752.12h-3.86c-0.36,0-1.5-0.18-1.5,0.78c0,1.08,1.93,6.56,1.93,22.23c0,16.5-4.26,17.28-6.23,17.28
			c-2.32,0-5.55-4.21-5.55-17.89c0-13.85,1.97-20.24,1.97-21.62c0-0.78-0.47-0.78-0.87-0.78h-5.48c-0.51,0-2.01,5-2.01,24.27
			c0,18.01,4.54,26.75,11.94,26.75c8.44,0,11.98-10.67,11.98-28.37C342.33,753.08,340.79,752.12,340.01,752.12z"/>
		<path class="st0" d="M362.03,777.66c0-1.69,5.91-4.64,5.91-14.28c0-5.12-1.85-11.26-9.18-11.26h-10.44
			c-0.67,0-2.72-1.09-2.72,28.67c0,22.59,1.18,21.44,2.17,21.44h4.57c0.39,0,1.38,0.3,1.38-0.72c0-0.42-1.46-8.67-1.46-13.25
			c0-3.38,2.87-5.84,4.06-5.84c2.28,0,5.43,12.22,5.43,19.03c0,0.96,1.23,0.78,1.94,0.78h4.45c0.82,0,0.98-0.12,0.98-0.78
			C369.12,787.23,362.03,779.34,362.03,777.66z M353.2,775.31c-1.18,0-1.22-2.41-1.22-3.68c-0.04-10.42,1.54-12.41,5.12-12.41
			c2.13,0,4.46,1.39,4.46,5.18C361.56,769.95,354.54,775.31,353.2,775.31z"/>
		<path class="st0" d="M395.95,751.21c-1.73,0-13.44,11.99-13.44,37.77c0,7.83,0.56,13.25,2.57,13.25h5.63
			c0.51,0,0.75-0.06,0.75-0.42c0-0.9-2.56-6.02-2.56-10.78c0-6.87,5.71-7.83,9.3-7.83c1.77,0,3.46,1.02,3.46,3.73
			c0,6.87-3.03,12.89-3.03,14.58c0,0.9,1.14,0.72,1.5,0.72h4.41c1.18,0,2.88,1.63,2.88-14.45
			C407.42,759.83,397.25,751.21,395.95,751.21z M398.51,775.07c-3.47,0-7.29,1.56-8,1.56c-0.47,0-0.75-0.42-0.75-1.14
			c0-4.4,4.22-13.98,6.35-13.98c1.5,0,4.41,7.83,4.41,11.57C400.52,774.77,399.89,775.07,398.51,775.07z"/>
		<path class="st0" d="M431.96,752.12h-2.99c-0.75,0-1.62-0.18-1.62,0.66c0,1.38,2.01,11.38,2.01,22.65c0,0.84,0.08,3.43-0.31,3.43
			c-0.36,0-0.56-0.78-0.67-1.08c-7.37-20.85-10.37-25.66-11.86-25.66h-3.12c-0.67,0-2.71-1.09-2.71,28.67
			c0,22.59,1.18,21.44,2.16,21.44h3.67c0.35,0,1.1,0.24,1.1-0.54c0-3.07-1.62-9.22-1.62-26.2c0-1.21-0.27-7.77,0.71-7.77
			c1.26,0,4.73,10.12,5.24,11.74c6.15,19.04,3.71,22.77,6.43,22.77h4.13c0.99,0,2.17,1.15,2.17-21.44
			C434.68,751.03,432.83,752.12,431.96,752.12z"/>
		<path class="st0" d="M448.04,752.12h-6.7c-0.67,0-2.72-1.09-2.72,28.67c0,22.59,1.18,21.44,2.17,21.44h10.2
			c7.96,0,11.07-8.73,11.07-19.15C462.06,760.49,453.04,752.12,448.04,752.12z M449.57,794.52c-2.2,0-4.81-1.56-4.81-15.12v-8.61
			c0-3.8,0.56-11.57,3.31-11.57c2.57,0,7.61,6.51,7.61,21.39C455.68,791.45,451.7,794.52,449.57,794.52z"/>
		<path class="st0" d="M489.21,751.21c-1.74,0-13.44,11.99-13.44,37.77c0,7.83,0.55,13.25,2.56,13.25h5.64
			c0.51,0,0.74-0.06,0.74-0.42c0-0.9-2.56-6.02-2.56-10.78c0-6.87,5.72-7.83,9.3-7.83c1.78,0,3.47,1.02,3.47,3.73
			c0,6.87-3.03,12.89-3.03,14.58c0,0.9,1.14,0.72,1.49,0.72h4.42c1.18,0,2.87,1.63,2.87-14.45
			C500.67,759.83,490.51,751.21,489.21,751.21z M491.77,775.07c-3.47,0-7.29,1.56-8,1.56c-0.47,0-0.75-0.42-0.75-1.14
			c0-4.4,4.22-13.98,6.34-13.98c1.5,0,4.42,7.83,4.42,11.57C493.78,774.77,493.15,775.07,491.77,775.07z"/>
		<path class="st0" d="M525.22,783.62c-0.36,0-0.91,8.79-7.33,8.79c-3.43,0-8.55-4.63-8.55-16.14c0-7.53,2.44-16.5,8.19-16.5
			c5.01,0,2.84,5.66,4.46,5.66c2.48,0,4.06-1.99,4.06-5.48c0-6.51-5.28-8.74-8.71-8.74c-9.58,0-14.38,14.28-14.38,27.35
			c0,12.17,4.17,24.58,13.12,24.58c5.51,0,10-5.18,10-14.1C526.08,788.44,525.77,783.62,525.22,783.62z"/>
		<path class="st0" d="M550.63,783.62c-0.36,0-0.91,8.79-7.33,8.79c-3.43,0-8.55-4.63-8.55-16.14c0-7.53,2.44-16.5,8.2-16.5
			c5,0,2.83,5.66,4.45,5.66c2.48,0,4.06-1.99,4.06-5.48c0-6.51-5.28-8.74-8.71-8.74c-9.58,0-14.38,14.28-14.38,27.35
			c0,12.17,4.17,24.58,13.12,24.58c5.51,0,10.01-5.18,10.01-14.1C551.5,788.44,551.18,783.62,550.63,783.62z"/>
		<path class="st0" d="M566.82,751.21c-7.37,0-13.04,17.29-13.04,32.77c0,10.42,3.11,19.16,11.07,19.16h3.94
			c7.96,0,11.07-8.74,11.07-19.16C579.86,768.5,574.19,751.21,566.82,751.21z M566.82,792.41c-4.18,0-6.66-2.71-6.66-9.75
			c0-13.32,4.02-21.69,6.66-21.69c2.64,0,6.66,8.37,6.66,21.69C573.48,789.7,571,792.41,566.82,792.41z"/>
		<path class="st0" d="M610.32,752.12h-3.08c-1.53,0-2.12-0.06-4.33,4.03c-4.18,7.77-4.41,12.17-5,12.17
			c-0.79,0-1.03-4.4-4.73-12.17c-1.93-4.03-2.48-4.03-4.02-4.03h-3.63c-0.67,0-2.71-1.09-2.71,28.67c0,22.59,1.18,21.44,2.16,21.44
			h4.22c0.47,0,1.42,0.18,1.42-0.9c0-0.84-2.49-11.69-2.49-27.41c0-1.26-0.03-8.67,1.27-8.67c1.22,0,2.52,6.08,2.91,7.41
			c3.51,12.35,2.21,18.01,5.52,18.01c2.64,0,1.3-5.66,4.61-18.01c0.39-1.45,1.89-7.41,3.03-7.41c1.3,0,1.18,7.41,1.18,8.67
			c0,15.72-2.24,26.57-2.24,27.41c0,1.08,0.94,0.9,1.42,0.9h5.04c0.98,0,2.17,1.15,2.17-21.44
			C613.04,751.03,610.99,752.12,610.32,752.12z"/>
		<path class="st0" d="M644.48,752.12h-3.08c-1.53,0-2.13-0.06-4.33,4.03c-4.18,7.77-4.41,12.17-5.01,12.17
			c-0.78,0-1.02-4.4-4.72-12.17c-1.93-4.03-2.49-4.03-4.02-4.03h-3.63c-0.67,0-2.72-1.09-2.72,28.67c0,22.59,1.19,21.44,2.17,21.44
			h4.22c0.47,0,1.42,0.18,1.42-0.9c0-0.84-2.49-11.69-2.49-27.41c0-1.26-0.04-8.67,1.26-8.67c1.23,0,2.53,6.08,2.92,7.41
			c3.51,12.35,2.21,18.01,5.52,18.01c2.64,0,1.3-5.66,4.61-18.01c0.39-1.45,1.89-7.41,3.03-7.41c1.3,0,1.18,7.41,1.18,8.67
			c0,15.72-2.24,26.57-2.24,27.41c0,1.08,0.94,0.9,1.41,0.9h5.05c0.98,0,2.16,1.15,2.16-21.44
			C647.19,751.03,645.15,752.12,644.48,752.12z"/>
		<path class="st0" d="M663.19,751.21c-7.37,0-13.04,17.29-13.04,32.77c0,10.42,3.11,19.16,11.07,19.16h3.94
			c7.96,0,11.07-8.74,11.07-19.16C676.23,768.5,670.56,751.21,663.19,751.21z M663.19,792.41c-4.18,0-6.66-2.71-6.66-9.75
			c0-13.32,4.02-21.69,6.66-21.69c2.64,0,6.66,8.37,6.66,21.69C669.85,789.7,667.37,792.41,663.19,792.41z"/>
		<path class="st0" d="M688.6,752.12h-6.7c-0.67,0-2.72-1.09-2.72,28.67c0,22.59,1.18,21.44,2.17,21.44h10.2
			c7.96,0,11.08-8.73,11.08-19.15C702.63,760.49,693.6,752.12,688.6,752.12z M690.14,794.52c-2.21,0-4.81-1.56-4.81-15.12v-8.61
			c0-3.8,0.55-11.57,3.31-11.57c2.56,0,7.6,6.51,7.6,21.39C696.24,791.45,692.26,794.52,690.14,794.52z"/>
		<path class="st0" d="M718.35,751.21c-1.74,0-13.44,11.99-13.44,37.77c0,7.83,0.55,13.25,2.56,13.25h5.64
			c0.51,0,0.74-0.06,0.74-0.42c0-0.9-2.56-6.02-2.56-10.78c0-6.87,5.72-7.83,9.3-7.83c1.78,0,3.47,1.02,3.47,3.73
			c0,6.87-3.03,12.89-3.03,14.58c0,0.9,1.14,0.72,1.49,0.72h4.42c1.18,0,2.87,1.63,2.87-14.45
			C729.81,759.83,719.65,751.21,718.35,751.21z M720.91,775.07c-3.47,0-7.29,1.56-8,1.56c-0.47,0-0.75-0.42-0.75-1.14
			c0-4.4,4.22-13.98,6.34-13.98c1.5,0,4.42,7.83,4.42,11.57C722.92,774.77,722.29,775.07,720.91,775.07z"/>
		<path class="st0" d="M743.09,751.21c-5.32,0-10.64,2.17-11.03,3.32c-0.59,1.68-1.66,9.15-1.66,11.02c0,1.69,0.2,1.44,0.55,1.44
			c0.67,0,5.6-6.92,8.4-6.92c0.98,0,0.78,1.08,0.78,2.89c0,2.23-1.73,10.78-1.73,24.21c0,17.47,1.73,15.06,2.48,15.06h4.14
			c0.51,0,1.93,0.3,1.93-1.02c0-1.09-2.17-8.68-2.17-24.16c0-5.54,0.4-17.04,2.8-17.04c2.84,0,4.45,5,5.12,5
			c0.44,0,2.37-5.73,2.37-8.38C755.07,753.8,749.43,751.21,743.09,751.21z"/>
		<path class="st0" d="M765.98,753.08c0-1.14-0.99-0.96-1.5-0.96h-4.25c-0.67,0-2.72-1.09-2.72,28.67c0,22.59,1.18,21.44,2.16,21.44
			h5.6c0.35,0,0.59-0.06,0.59-0.66c0-0.84-1.97-10.78-1.97-26.2C763.89,763.74,765.98,753.68,765.98,753.08z"/>
		<path class="st0" d="M781.97,751.21c-7.36,0-13.04,17.29-13.04,32.77c0,10.42,3.12,19.16,11.07,19.16h3.94
			c7.96,0,11.08-8.74,11.08-19.16C795.02,768.5,789.34,751.21,781.97,751.21z M781.97,792.41c-4.17,0-6.65-2.71-6.65-9.75
			c0-13.32,4.02-21.69,6.65-21.69c2.64,0,6.66,8.37,6.66,21.69C788.63,789.7,786.15,792.41,781.97,792.41z"/>
		<path class="st0" d="M819.25,752.12h-3c-0.75,0-1.61-0.18-1.61,0.66c0,1.38,2.01,11.38,2.01,22.65c0,0.84,0.07,3.43-0.32,3.43
			c-0.35,0-0.55-0.78-0.67-1.08c-7.37-20.85-10.36-25.66-11.86-25.66h-3.11c-0.67,0-2.72-1.09-2.72,28.67
			c0,22.59,1.18,21.44,2.17,21.44h3.66c0.36,0,1.1,0.24,1.1-0.54c0-3.07-1.61-9.22-1.61-26.2c0-1.21-0.28-7.77,0.71-7.77
			c1.26,0,4.73,10.12,5.24,11.74c6.14,19.04,3.7,22.77,6.42,22.77h4.14c0.98,0,2.16,1.15,2.16-21.44
			C821.96,751.03,820.11,752.12,819.25,752.12z"/>
	</g>
	<g>
		<g>
			<path class="st0" d="M271.35,661.84c-7.87,1.63-15.84,3.19-23.87,4.7c-8.33,1.58-16.7,3.1-25.13,4.59
				c-14.7,2.59-29.54,5.04-44.5,7.39c-1.52,0.23-3.06,0.48-4.59,0.71c-4.44-1.6-8.81-3.34-13.08-5.19
				c-61.33-26.48-106-77.36-113.75-138.94c-9.71-77.03,41.27-147.71,120.78-178.91l0.73,1.67l5.68,13.2l2.45,5.68
				c-49.7,33.05-78.75,85.89-71.62,142.54c6.35,50.35,39.92,92.81,87.24,118.27C215.37,650.29,242.49,658.77,271.35,661.84z"/>
			<path class="st0" d="M281.26,690.58c1.72,0.5,3.38,1.04,5.06,1.57c-2.17,0.25-4.34,0.47-6.53,0.66
				c-7.35,0.64-14.65,0.97-21.89,0.98c4.18-0.82,8.34-1.64,12.48-2.45c2.24-0.43,4.47-0.87,6.71-1.3c0.71-0.14,2.14-0.05,2.83,0.14
				C280.37,690.31,280.82,690.44,281.26,690.58z"/>
			<path class="st0" d="M332.29,680.38c1.21,0.28,2.44,0.59,3.75,0.9c-3.23,1.08-6.51,2.08-9.84,3.02
				c-5.28,1.23-10.45,2.41-15.63,3.6c-7.79,1.77-9.41,2.13-14.15,0.81c-1.24-0.34-2.71-0.8-4.54-1.38
				c-0.11-0.02-0.14-0.07-0.39-0.21c11.49-2.6,22.76-5.15,34.08-7.68c0.62-0.14,1.74-0.21,2.28-0.08
				C329.33,679.66,330.78,680,332.29,680.38z"/>
			<path class="st0" d="M364.91,669.53c-6.7,3.27-13.65,6.25-20.82,8.92c-1.21-0.26-2.41-0.54-3.64-0.82
				c-1.18-0.27-2.38-0.54-3.62-0.82c6.03-1.6,11.91-3.17,17.75-4.71c3.06-0.82,6.11-1.62,9.17-2.42
				C364.04,669.6,364.49,669.55,364.91,669.53z"/>
			<path class="st0" d="M436.05,612.6c-0.42,0.54-0.83,1.08-1.26,1.6c-0.66,0.83-1.32,1.66-1.99,2.48c-0.48-0.05-0.91-0.11-1.28-0.2
				h-0.01c0.97-0.8,1.92-1.59,2.86-2.42C434.92,613.58,435.48,613.09,436.05,612.6z"/>
			<path class="st1" d="M179.14,654.61c13.63,6.94,28.15,12.46,43.22,16.51c-14.7,2.59-29.54,5.04-44.5,7.39
				c-5.45-1.85-10.8-3.9-16.04-6.14c-32.67-13.92-61.34-35.14-82.16-62.95c-61.49-82.13-31.15-190.54,67.77-242.12
				c6.71-3.5,13.55-6.64,20.52-9.44l5.68,13.2c-90.86,50.44-117.91,152.06-60,229.39C130.72,623.28,153.33,641.49,179.14,654.61z"/>
			<path class="st1" d="M279.93,690.18c0.45,0.13,0.89,0.26,1.33,0.4c-3.62,0.34-7.25,0.6-10.88,0.76c2.24-0.43,4.47-0.87,6.71-1.3
				C277.81,689.9,279.24,689.99,279.93,690.18z"/>
			<path class="st1" d="M327.86,679.35c1.48,0.32,2.93,0.66,4.44,1.03c-11.77,3.7-23.77,6.46-35.87,8.33
				c-1.24-0.34-2.71-0.8-4.54-1.38c-0.11-0.02-0.14-0.07-0.39-0.21c11.49-2.6,22.76-5.15,34.08-7.68
				C326.19,679.29,327.32,679.22,327.86,679.35z"/>
			<path class="st1" d="M354.58,672.11c-4.66,2-9.38,3.85-14.13,5.53c-1.18-0.27-2.38-0.54-3.62-0.82
				C342.86,675.21,348.74,673.64,354.58,672.11z"/>
			<g>
				<g>
					<path class="st0" d="M349.01,315.81c-2.85,3.98-6.9,6.98-12.05,8.69c-36.11,12.05-72.22,24.1-108.43,35.92
						c-3.73,1.22-8.16,1.39-12.25,1.28c-8.75-0.23-17.49-0.93-26.22-1.49c-1.3-0.09-2.57-0.49-3.85-0.75c0-0.23-0.01-0.45-0.01-0.67
						c17.3-6.02,34.59-12.04,52.42-18.25c-9.48-8.41-18.68-16.58-28.18-25.01c1.87-1.87,3.51-3.76,5.49-5.34
						c0.59-0.47,2.29-0.29,3.32-0.01c18.92,5.16,37.82,10.34,56.69,15.61c2.51,0.7,4.66,0.65,7.12-0.18
						c15.71-5.36,31.48-10.59,47.22-15.9c4.85-1.64,9.83-1.97,14.9-1.11C350.3,309.48,351.69,312.08,349.01,315.81z"/>
					<path class="st0" d="M350.98,310.79c-0.8-1.52-2.68-2.55-5.59-3.04c-5.32-0.91-10.54-0.53-15.5,1.15
						c-5.74,1.94-11.49,3.86-17.24,5.79c-9.83,3.29-20.01,6.7-29.98,10.11c-2.2,0.75-4.11,0.79-6.39,0.16
						c-16.49-4.6-33.97-9.42-56.69-15.62c-0.31-0.08-3.1-0.8-4.37,0.21c-1.51,1.18-2.77,2.51-4.12,3.91c-0.48,0.49-0.96,1-1.46,1.5
						l-0.59,0.6l27.78,24.65l-51.69,18l0.04,1.94l0.78,0.15c0.4,0.09,0.78,0.18,1.18,0.27c0.9,0.21,1.84,0.44,2.84,0.51
						c1.93,0.13,3.85,0.25,5.77,0.38c6.71,0.46,13.65,0.94,20.49,1.12c0.63,0.01,1.33,0.02,2.05,0.02c3.19,0,7.16-0.24,10.61-1.37
						c37.01-12.07,74.96-24.74,108.44-35.92c2.64-0.87,5.02-2.08,7.13-3.59c2.09-1.51,3.91-3.34,5.43-5.46
						C351.42,314.15,351.79,312.32,350.98,310.79z M216.31,360.82c-6.79-0.18-13.7-0.65-20.38-1.1c-1.94-0.13-3.86-0.26-5.79-0.39
						c-0.61-0.03-1.23-0.16-1.88-0.31l52.16-18.17l-28.58-25.37c0.3-0.31,0.6-0.61,0.89-0.93c1.3-1.34,2.53-2.62,3.9-3.71
						c0.24-0.12,1.29-0.11,2.31,0.18c22.71,6.18,40.2,10.99,56.67,15.61c2.77,0.76,5.19,0.7,7.85-0.22
						c9.98-3.39,20.14-6.8,29.96-10.09c5.75-1.93,11.5-3.86,17.25-5.8c4.58-1.54,9.38-1.89,14.3-1.06c1.51,0.26,3.46,0.82,4.1,2.04
						c0.16,0.3,0.22,0.63,0.22,0.96c0,0.99-0.59,2.08-1.18,2.9c-2.81,3.91-6.7,6.71-11.55,8.33
						c-33.48,11.18-71.43,23.84-108.42,35.91C224.25,360.88,219.52,360.9,216.31,360.82z"/>
				</g>
				<g>
					<path class="st0" d="M202.45,350.24c-6.02,2.11-11.43,4.06-16.9,5.87c-0.69,0.23-2.02-0.02-2.55-0.47
						c-4.29-3.55-8.46-7.2-12.69-10.84c0.35-0.55,0.41-0.74,0.55-0.87c3.7-3.49,3.71-3.5,8.87-1.73c6.53,2.24,13.06,4.48,19.58,6.74
						C200.19,349.22,201.01,349.63,202.45,350.24z"/>
					<path class="st0" d="M202.92,349.46c-0.51-0.22-0.94-0.41-1.33-0.57c-0.71-0.32-1.27-0.57-1.88-0.78
						c-6.52-2.26-13.05-4.49-19.58-6.73c-5.58-1.91-6.04-1.81-10.07,1.98c-0.17,0.16-0.26,0.33-0.39,0.54
						c-0.07,0.11-0.15,0.27-0.29,0.49l-0.35,0.56l3.52,3.03c3.16,2.74,6.43,5.57,9.71,8.27c0.6,0.51,1.67,0.81,2.63,0.81
						c0.38,0,0.74-0.05,1.05-0.14c4.15-1.38,8.28-2.83,12.64-4.38l6.36-2.24L202.92,349.46z M197.78,350.94
						c-4.36,1.53-8.48,2.98-12.62,4.35c-0.3,0.1-1.18-0.07-1.43-0.28c-3.26-2.69-6.52-5.51-9.67-8.23l-2.48-2.14
						c0.03-0.09,0.06-0.13,0.07-0.15c1.64-1.55,2.55-2.41,3.34-2.56c0.78-0.15,2.05,0.28,4.34,1.07c6.52,2.23,13.06,4.47,19.58,6.73
						c0.34,0.12,0.69,0.26,1.08,0.42L197.78,350.94z"/>
				</g>
			</g>
		</g>
		<g>
			<path class="st2" d="M141.96,714.29c2.34,1.46,4.47,2.79,6.75,4.22c-10.61,1.71-20.77,3.38-30.99,4.99
				c-2.31,0.36-4.61,0.73-6.93,1.08l6.25-6.39c5.87-0.91,11.72-1.82,17.59-2.72C137.05,715.09,139.45,714.69,141.96,714.29z"/>
			<path class="st2" d="M225.99,705.05c-19.24,3.41-38.16,6.76-57.12,10.12c-2.56-1.45-4.79-2.71-6.93-3.91
				c0.19-0.14,0.22-0.2,0.3-0.21c17.9-3.13,35.82-6.25,53.77-9.34c0.67-0.12,2.03-0.06,2.49,0.13
				C221,702.83,223.32,703.88,225.99,705.05z"/>
			<path class="st2" d="M287.84,692.63c-0.26,0.13-0.36,0.22-0.55,0.27c-14.4,2.89-28.82,5.8-43.29,8.65
				c-0.68,0.13-2.17,0.01-2.78-0.21c-2.51-0.87-4.81-1.82-7.41-2.82c8.15-1.6,16.15-3.17,24.09-4.73c4.18-0.82,8.34-1.64,12.48-2.45
				c2.24-0.43,4.47-0.87,6.71-1.3c0.71-0.14,2.14-0.05,2.83,0.14c0.45,0.13,0.89,0.26,1.33,0.4c1.72,0.5,3.38,1.04,5.06,1.57
				C286.82,692.31,287.33,692.46,287.84,692.63z"/>
			<path class="st2" d="M337.62,681.67c-3.9,0.9-7.69,1.78-11.42,2.63c-5.28,1.23-10.45,2.41-15.63,3.6
				c-7.79,1.77-9.41,2.13-14.15,0.81c-1.24-0.34-2.71-0.8-4.54-1.38c-0.11-0.02-0.14-0.07-0.39-0.21
				c11.49-2.6,22.76-5.15,34.08-7.68c0.62-0.14,1.74-0.21,2.28-0.08c1.48,0.32,2.93,0.66,4.44,1.03c1.21,0.28,2.44,0.59,3.75,0.9
				C336.56,681.41,337.08,681.54,337.62,681.67z"/>
			<path class="st2" d="M376.23,671.51c-9.73,2.59-18.76,4.99-27.85,7.37c-0.54,0.14-1.7,0.14-2.3,0.01c-0.67-0.14-1.33-0.28-2-0.43
				c-1.21-0.26-2.41-0.54-3.64-0.82c-1.18-0.27-2.38-0.54-3.62-0.82c6.03-1.6,11.91-3.17,17.75-4.71c3.06-0.82,6.11-1.62,9.17-2.42
				c0.29-0.08,0.74-0.14,1.16-0.15c0.32-0.01,0.61,0,0.83,0.04C369.01,670.13,372.2,670.75,376.23,671.51z"/>
			<path class="st2" d="M394.65,660.61c3.36,0.46,6.65,0.98,9.98,1.48c0.19,0.16,0.39,0.33,0.6,0.49
				c-4.54,1.38-9.13,2.74-13.62,4.13c-8.81,2.76-8.78,2.78-17.28,0.98c5.84-2.21,11.94-4.52,18.12-6.82
				C392.94,660.69,394.05,660.54,394.65,660.61z"/>
			<path class="st2" d="M416.28,652.35c3.27,0.33,6.49,0.73,10.56,1.19c-5.34,2.19-10.04,4.12-14.83,6.03
				c-0.55,0.22-1.79,0.41-2.46,0.33c-3.3-0.41-6.53-0.91-9.98-1.42c5.02-2.05,9.72-3.98,14.5-5.89
				C414.55,652.41,415.62,652.3,416.28,652.35z"/>
			<path class="st2" d="M431.56,644.6c3.07,0.22,6.1,0.55,10.05,0.93c-3.55,1.97-6.64,3.74-9.91,5.45c-0.47,0.25-1.9,0.42-2.71,0.35
				c-3.16-0.28-6.25-0.68-9.52-1.05c3.34-1.85,6.44-3.62,9.7-5.34C429.59,644.71,430.83,644.54,431.56,644.6z"/>
			<path class="st2" d="M440.24,616.19c-0.15,0.13-0.28,0.26-0.43,0.4c-2.26-0.01-5.05,0.26-7.01,0.09
				c-0.48-0.05-0.91-0.11-1.28-0.2h-0.01c-4.38-1.19-7.93-2.85-12.67-4.63c3.84,0.04,7.25-0.33,9.1,0.15
				c2.28,0.6,4.39,1.31,6.43,2.05c0.14,0.05,0.28,0.09,0.42,0.14C436.61,614.87,438.39,615.55,440.24,616.19z"/>
			<path class="st2" d="M442.32,643.36c-3.08-0.21-6.09-0.53-9.38-0.82c1.07-0.83,1.99-1.53,2.87-2.25c4.1-3.35,4.1-3.35,13.64-2.51
				c0.21,0.01,0.41,0.08,1.1,0.25c-1.85,1.62-3.65,3.27-5.68,4.88C444.56,643.17,443.11,643.41,442.32,643.36z"/>
			<path class="st2" d="M443.94,618.16c3.82,1.11,6.14,2.83,8.23,4.75c-3.19-0.02-5.61,0.01-8.01-0.08c-0.88-0.05-2-0.3-2.48-0.59
				c-2.13-1.29-4.05-2.61-6.5-4.2C438.4,618.06,442.14,617.63,443.94,618.16z"/>
			<path class="st2" d="M452.03,636.07c-3.92-0.25-7.31-0.47-10.94-0.7c1-1.8,1.91-3.44,2.89-5.23c3.55,0.19,6.93,0.36,10.55,0.54
				c-0.26,0.75-0.4,1.29-0.66,1.83C453.33,633.62,452.72,634.74,452.03,636.07z"/>
			<path class="st2" d="M454.58,628.85l-10.15-0.27c-0.19-1.53-0.36-2.94-0.55-4.45c10.82,0,10.47-0.59,10.89,3.61
				C454.81,628.1,454.65,628.45,454.58,628.85z"/>
			<path class="st2" d="M305.27,572.69c-2.68,2.06-2.9,2.1-8.76,1.53C298.21,572.26,299.46,572.05,305.27,572.69z"/>
			<path class="st2" d="M295.03,575.26c1.97-0.27,4.17-0.27,6.38-0.36c0.19,0.9,0.32,1.53,0.53,2.58c-2.75-0.26-5.05-0.36-6.97-0.74
				C294.41,576.61,294.56,575.31,295.03,575.26z"/>
			<path class="st2" d="M296.46,578c6.86-0.19,6.86-0.19,10.64,2.39C300.88,580.93,299.21,580.57,296.46,578z"/>
			<path class="st2" d="M311.47,570.25c-4.38,1.91-4.94,1.99-9.87,1.28C305.42,569.68,306.31,569.56,311.47,570.25z"/>
			<path class="st2" d="M304.14,581.61c7.35-1.03,9.98,1.44,14.98,2.58C312.38,584.76,308.63,584.08,304.14,581.61z"/>
			<path class="st2" d="M319.72,568.02c-3.28,1.03-6.29,2-10.94,1.09C312.01,568.09,314.97,567.08,319.72,568.02z"/>
			<path class="st2" d="M329.67,566.06c-3.98,0.68-7.1,1.93-11.86,0.81C321.67,566.25,324.74,565.02,329.67,566.06z"/>
			<path class="st2" d="M315.99,585.75c9.31-1.16,12.95,1.7,19.65,2.73C326.45,589.72,322.63,586.92,315.99,585.75z"/>
			<path class="st2" d="M328.49,564.96c4.24-0.53,7.74-1.74,12.95-0.74C336.95,564.69,333.51,566.03,328.49,564.96z"/>
			<path class="st2" d="M340.57,589.93c4.95,0.96,9.56,2.18,14.3,3.3c-2.45,0.37-5,0.71-6.64,0.4c-4.91-0.97-9.46-2.2-14.16-3.33
				c0.07-0.09,0.14-0.19,0.21-0.29C336.42,589.96,338.95,589.61,340.57,589.93z"/>
			<path class="st2" d="M354.51,562.57c-4.77,0.33-8.42,1.55-13.01,0.62C345.56,562.88,349.2,561.51,354.51,562.57z"/>
			<path class="st2" d="M355.15,561.46c4.29-0.15,8.24-1.35,12.96-0.27c-4.24,0.32-8.49,0.63-12.72,0.96
				C355.32,561.92,355.23,561.68,355.15,561.46z"/>
			<path class="st2" d="M376.57,598.29c0.23,0.06,0.47,0.11,0.7,0.16c-0.08,0.12-0.16,0.23-0.26,0.36c-1.37,0-2.88,0.11-4.29,0.12
				c-1.1,0.02-2.13-0.01-2.99-0.18c-5.25-1.02-10.09-2.33-15.08-3.52c0.07-0.12,0.15-0.23,0.25-0.34c2.13-0.06,4.67-0.42,6.29-0.11
				C366.49,595.84,371.48,597.09,376.57,598.29z"/>
			<path class="st2" d="M374.76,625.66c-0.9,1.19-2.2,2.35-3.55,3.49c-7.97,6.71-20.86,11.92-35.47,16.56
				c-19.91,6.31-41.73,11.49-64.38,16.14c-7.87,1.63-15.84,3.19-23.87,4.7c-8.33,1.58-16.7,3.1-25.13,4.59
				c-14.7,2.59-29.54,5.04-44.5,7.39c-1.52,0.23-3.06,0.48-4.59,0.71c-7.08,1.11-14.2,2.19-21.34,3.26l8.26-8.44l1.63-1.66
				l15.94-16.3c0.47-0.47,0.93-0.96,1.38-1.46c4.36-4.71,8.54-10.47,12.55-17.06c4.25-6.99,8.31-14.92,12.17-23.53
				c0.29-0.67,0.6-1.33,0.89-2c3.07-6.97,6.01-14.36,8.81-22.03c2.45-6.69,4.8-13.57,7.04-20.6c23.37-73,35.94-159.6,35.94-159.6
				c0-1.35,1.36-2.45,2.99-2.45h100.3c1.6,0.05,2.89,1.12,2.89,2.45v146.03c-2.82,0.16-5.63,0.34-8.45,0.52
				c-23.69,1.48-46.97,3.71-69.1,7.37c-12.38,2.04-23.97,4.53-32.95,8.51c-5.02,2.24-6.03,4.66-2.2,7.18
				c2.53,1.67,5.37,3.4,9.1,4.66c9.99,3.37,20.26,6.65,30.93,9.72c8.31,2.39,16.71,4.72,25.13,7.05c11.16,3.1,22.35,6.18,33.39,9.34
				c5.09,1.45,9.88,3.06,14.24,4.82h0.02c3.33,1.35,6.36,2.8,9.11,4.36c0.05,0.02,0.08,0.05,0.13,0.07
				c0.78,0.46,1.45,0.91,1.98,1.39C375.75,622.34,376.05,623.96,374.76,625.66z"/>
			<path class="st2" d="M383.5,559.61c-7.11,1.02-10.48,1.15-13.78,0.41c4.84-0.32,9.22-0.6,13.58-0.88
				C383.39,559.29,383.44,559.46,383.5,559.61z"/>
			<path class="st2" d="M384.11,600.19c5.52,1.11,10.62,2.52,15.9,3.81c-0.06,0.13-0.11,0.26-0.16,0.37
				c-2.38,0.06-5.25,0.45-7.03,0.07c-5.53-1.14-10.63-2.56-15.9-3.89c0.08-0.12,0.15-0.23,0.23-0.34
				C379.5,600.17,382.32,599.81,384.11,600.19z"/>
			<path class="st2" d="M400.7,558.52c-4.53,0.26-9.08,0.52-13.61,0.77c-0.07-0.21-0.14-0.41-0.21-0.62
				c4.53-0.26,9.08-0.52,13.61-0.76C400.58,558.11,400.63,558.32,400.7,558.52z"/>
			<path class="st2" d="M421.98,609.98c-0.13,0.14-0.25,0.27-0.36,0.41c-2.71-0.01-6,0.34-8.01-0.12c-2.73-0.62-5.3-1.35-7.96-2.14
				c-0.89-0.27-1.8-0.54-2.73-0.82c-1.18-0.36-2.39-0.73-3.67-1.1c-0.26-0.08-0.53-0.15-0.8-0.23c0.57-0.01,1.12-0.04,1.66-0.06
				c0.01,0,0.01,0,0.02,0c2.44-0.11,4.5-0.32,5.94-0.14c0.21,0.02,0.4,0.06,0.59,0.09c0.81,0.18,1.59,0.36,2.38,0.56
				C413.49,607.52,417.67,608.79,421.98,609.98z"/>
			<path class="st2" d="M419.05,557.37c-4.75,0.23-9.52,0.46-14.29,0.7c-0.02-0.21-0.06-0.41-0.08-0.61
				c4.78-0.07,9.41-0.88,14.29-0.5C419.01,557.09,419.03,557.23,419.05,557.37z"/>
			<path class="st2" d="M429.02,531.24c-0.63,0.49,0.05,1.23,0.15,1.89c-1.9-0.08-3.52-0.41-3.3-1.41c0.21-0.94,3.86-1.82,7.17-1.76
				C431.63,530.37,429.72,530.7,429.02,531.24z"/>
			<path class="st2" d="M438.91,556.34c-5.15,0.19-10.32,0.36-15.47,0.55c-0.04-0.16-0.06-0.33-0.09-0.49
				c5.18-0.22,10.34-0.45,15.5-0.66C438.88,555.95,438.9,556.14,438.91,556.34z"/>
			<path class="st2" d="M462.3,555.04c-4.8,0.21-9.61,0.42-14.43,0.62c-0.02-0.16-0.06-0.32-0.09-0.48c4.8-0.21,9.6-0.42,14.39-0.63
				C462.22,554.72,462.25,554.88,462.3,555.04z"/>
			<path class="st2" d="M492.04,553.05c-3.3,0.19-6.62,0.39-9.93,0.57c-0.05-0.18-0.12-0.34-0.16-0.5c3.3-0.19,6.62-0.37,9.93-0.56
				C491.94,552.72,491.99,552.89,492.04,553.05z"/>
			<path class="st2" d="M503.18,552.03c-2.83,0.2-5.67,0.39-8.5,0.59c-0.08-0.16-0.15-0.34-0.23-0.5c2.83-0.2,5.66-0.41,8.49-0.6
				C503.02,551.68,503.1,551.86,503.18,552.03z"/>
			<path class="st2" d="M526.73,544.55c-0.26,0.18-0.52,0.36-0.76,0.55c-2.79-0.64-5.56-1.28-8.34-1.91
				c0.16-0.13,0.32-0.25,0.48-0.37C520.98,543.4,523.85,543.98,526.73,544.55z"/>
			<path class="st2" d="M478.51,554.13c-1.35,0.07-2.71,0.14-4.05,0.22c-0.4,0.01-0.78,0.04-1.17,0.06
				c-2.15,0.11-4.31,0.22-6.46,0.35c-0.07-0.16-0.13-0.34-0.18-0.5c2.42-0.13,4.86-0.26,7.3-0.4c0.32-0.01,0.63-0.04,0.95-0.05
				c1.15-0.06,2.28-0.13,3.43-0.19C478.39,553.79,478.45,553.95,478.51,554.13z"/>
			<path class="st2" d="M454.59,531.95c13.17-2.18,27.52-2.17,41.36-3.09C481.97,529.5,467.46,529.18,454.59,531.95z"/>
			<g>
				<g>
					<path class="st1" d="M666.84,102.84c-11.06-20.79-31.25-39.29-68.07-39.29c-36.83,0-57.02,18.5-68.08,39.29
						c-13.58,25.58-13.88,56.17-1.29,82.23l59.79,123.79c3.4,7.06,13.44,7.12,16.93,0.11l61.54-123.65
						C680.61,159.29,680.48,128.52,666.84,102.84z M667.55,185.26l-61.54,123.65c-1.59,3.21-4.82,5.19-8.39,5.16
						c-3.58-0.01-6.77-2.04-8.33-5.26L529.5,185.03c-12.62-26.14-12.14-56.84,1.3-82.13c13.83-26.03,36.7-39.24,67.97-39.24
						c15.63,0,29.17,3.3,40.51,9.86c11.36,6.56,20.54,16.37,27.45,29.38C680.25,128.34,680.55,159.12,667.55,185.26z"/>
					<path class="st1" d="M666.94,102.79c-6.22-11.71-14.44-20.97-24.4-27.5c-12.03-7.87-26.76-11.86-43.77-11.86
						c-17.02,0-31.75,3.99-43.78,11.86c-9.96,6.53-18.18,15.79-24.4,27.5c-6.65,12.53-10.28,26.69-10.48,40.98
						c-0.2,14.21,2.97,28.5,9.18,41.36l59.79,123.79c1.59,3.3,4.86,5.37,8.54,5.4h0.06c3.65,0,6.92-2.03,8.55-5.31l61.53-123.64
						C680.8,159.17,680.49,128.29,666.94,102.79z M597.62,314.07c-3.58-0.01-6.77-2.04-8.33-5.26L529.5,185.03
						c-12.62-26.14-12.14-56.84,1.3-82.13c13.83-26.03,36.7-39.24,67.97-39.24c15.63,0,29.17,3.3,40.51,9.86
						c11.36,6.56,20.54,16.37,27.45,29.38c13.52,25.44,13.82,56.22,0.82,82.36l-61.54,123.65
						C604.42,312.12,601.19,314.1,597.62,314.07z"/>
					<path class="st1" d="M666.73,102.9c-6.91-13.01-16.09-22.82-27.45-29.38c-11.34-6.56-24.88-9.86-40.51-9.86
						c-31.27,0-54.14,13.21-67.97,39.24c-13.44,25.29-13.92,55.99-1.3,82.13l59.79,123.78c1.56,3.22,4.75,5.25,8.33,5.26
						c3.57,0.03,6.8-1.95,8.39-5.16l61.54-123.65C680.55,159.12,680.25,128.34,666.73,102.9z M596.84,197.91
						c-29.02,0-52.54-23.52-52.54-52.54c0-29.02,23.52-52.54,52.54-52.54s52.54,23.52,52.54,52.54
						C649.38,174.39,625.86,197.91,596.84,197.91z"/>
				</g>
			</g>
			<path class="st0" d="M527.15,525.32h-44.69c-13.05,0.43-26.09,0.84-39.12,1.31c-11.99,0.43-24.05,0.89-35.31,2.66
				c-2.27,0.35-3.82,1.38-5.7,2.11c1.77,0.62,3.47,1.29,5.35,1.86c0.91,0.28,2.17,0.43,3.31,0.56c12.68,1.46,25.38,2.93,38.07,4.37
				c14.1,1.6,28.27,3.11,42.3,4.8c4.75,0.57,5.27,2.42,1.12,3.5c-2.76,0.73-5.93,1.3-9.11,1.71c-16.09,2.12-32.89,2.89-49.64,3.81
				c-21.84,1.18-43.76,2.24-65.58,3.5V408.74c0-1,1.31-1.6,2.38-1.09l7.46,3.65l8.57,4.22l4.18,2.06l15.36,7.56l9.58,4.71l2.72,1.33
				l11.46,5.63l15.6,7.67c1.05,0.5,2.38-0.08,2.38-1.09V340.83c0-1.35,1.35-2.45,3-2.45h11.7c0.5,0,0.97-0.09,1.38-0.28
				c0.96-0.4,1.6-1.22,1.6-2.14v-50c0-0.35,0.33-0.66,0.74-0.66c0.4,0,0.73-0.29,0.73-0.64v-25.47c0-6.96,1.62-13.7,4.66-19.64
				c0.21-0.42,0.43-0.84,0.67-1.25c0.26-0.46,0.53-0.95,0.83-1.43c0.13-0.21,0.26-0.46,0.4-0.67c0.12-0.16,0.23-0.33,0.34-0.52
				c0.36-0.5,0.68-0.98,1.01-1.43c0.08-0.11,0.15-0.22,0.23-0.32l0.11-0.16c0.09-0.08,0.15-0.2,0.25-0.3
				c0.39-0.5,0.8-1.02,1.22-1.52c0.09-0.13,0.22-0.26,0.36-0.37c0.44-0.52,0.84-0.96,1.22-1.36c0.09-0.09,0.22-0.22,0.34-0.34
				c0.4-0.4,0.8-0.81,1.24-1.18c5.04-4.59,11.03-7.46,17.44-8.29c0.77-0.11,1.36-0.63,1.36-1.28v-81.34c0-0.71,0.71-1.28,1.57-1.28
				c0.85,0,1.57,0.56,1.57,1.28v145.07c0,1.36,1.33,2.45,2.99,2.45h8.75c1.64,0,2.99,1.09,2.99,2.44v116.25
				c0,0.66,0.32,1.25,0.81,1.67c0.55,0.47,1.32,0.77,2.17,0.77h7.27c1.66,0,2.99,1.1,2.99,2.45
				C529.75,408.88,527.55,525.32,527.15,525.32z"/>
			<path class="st0" d="M503.25,672.33c-18.53,10.11-41.22,18.74-65.63,26.76c-29.18,9.58-60.12,18.28-92.68,26.1
				c-27.96,6.71-56.41,13.12-84.74,19.6l562.58-0.26l-67.51-69.74c-62.45-63.9-96.84-145.94-96.76-230.88v-0.01
				c0-0.35-0.34-0.64-0.74-0.64h-10.41c-0.4,0-0.72-0.31-0.72-0.66v-21.4c0-0.28-0.21-0.53-0.52-0.64
				c-0.33-0.09-0.69-0.15-1.06-0.15h-2.25c-1.64,0-2.98-1.11-2.98-2.46V399.7c0-1.36-1.34-2.44-2.98-2.44h-20.81
				c-0.22,0-0.36,0.05-0.43,0.07c-0.23-0.33-0.84-1.01-2.34-2.33c-0.14-0.12-0.22-0.29-0.22-0.47v-51.58c0-0.7-0.69-1.28-1.54-1.28
				h-26.12c-1.64,0-2.98,1.09-2.98,2.44v50.7c0,1.35-1.35,2.45-2.99,2.45h-18.69c-1.65,0-2.98,1.08-2.98,2.44v18.25
				c0,1.35-1.35,2.46-2.99,2.46h-2.26c-1.64,0-2.99,1.09-2.99,2.45v15.56c0,0.41-0.14,0.81-0.37,1.17
				c-0.01,0.01-0.04,0.04-0.05,0.06c-0.07,0.12-0.16,0.21-0.28,0.33c0,0-0.01,0.01-0.05,0.02c-0.51,0.54-1.33,0.87-2.23,0.87h-4.5
				c-1.64,0-2.99,1.1-2.99,2.44l-0.12,72.67l-0.02,6.15l0.03,0.83l0.09,2.5l0.02,0.8c0,0-7.43,0.76-11.21,0.92
				c-17.29,0.73-34.62,1.29-51.89,2.03c-5.89,0.26-11.7,0.82-17.52,1.29c-1.52,0.13-3.1,0.35-4.36,0.69c-1.07,0.3-2.4,0.82-2.4,1.24
				c0.01,0.38,1.54,0.94,2.67,1.08c7.65,0.91,15.36,1.79,23.1,2.6c20.87,2.18,41.82,4.27,62.66,6.52c4.6,0.5,9.15,1.36,13.09,2.39
				c6.58,1.73,6.68,4.17-0.13,5.7c-6.52,1.47-13.67,2.66-20.91,3.5c-20.15,2.33-40.93,3.51-61.69,4.66
				c-1.07,0.06-2.12,0.12-3.18,0.18c-2.02,0.12-4.04,0.22-6.05,0.34c-25.66,1.46-51.21,3.11-75.87,6.3
				c-9.49,1.23-18.87,2.61-26.72,5.02c-3.72,1.14-6.62,2.67-9.66,4.1c-2.76,1.28-1.75,2.59,1.12,3.59
				c4.12,1.42,8.21,2.95,12.96,4.04c13.62,3.1,27.33,6.13,41.09,9.14c4.91,1.08,9.83,2.16,14.76,3.22c2.54,0.55,5.07,1.1,7.61,1.65
				c21.91,4.74,43.69,9.58,63.36,15.65c11.32,3.49,21.76,7.3,28.96,12.2c6.91,4.71,8.13,9.86,7.61,15.09
				c-0.84,8.67-9,16.46-20.63,23.77c-17.53,11.04-40.89,20.13-66.22,28.55c-39.04,12.97-81.63,24.09-126.15,34.08
				c-29.2,6.55-58.93,12.75-88.57,19.02l26.06-0.03c0.01,0.02,0.01,0,0.02,0c0.43-0.08,0.91-0.15,1.3-0.24
				c18.47-4.11,37.19-8.08,55.4-12.37c20.2-4.73,40.19-9.61,59.83-14.68c39.06-10.08,76.34-21.03,108.88-34.14
				c17.04-6.86,32.25-14.25,43.46-22.74c1.4-1.06,2.71-2.14,4.07-3.22c0.29,0.29,0.14,0.52-0.08,0.73
				C518.43,663.17,511.43,667.88,503.25,672.33z M454.59,531.95c12.87-2.77,27.38-2.45,41.36-3.09
				C482.11,529.78,467.76,529.77,454.59,531.95z M514.73,528.37c7.78-0.54,16.25-1.14,24.33-1.69l0.01,0.47
				C531.28,527.93,519.14,528.64,514.73,528.37z M451.03,561.28c-8.92,0.7-17.89,1.34-26.8,2.05c-15.25,1.25-30.31,2.77-44.63,5.16
				c-10.62,1.78-20.93,3.78-27.26,8.25c0.09-0.5,0.03-0.65,0.16-0.76c0.42-0.39,0.87-0.77,1.41-1.13
				c5.31-3.61,14.26-5.49,23.71-7.05c18.97-3.15,39.08-4.77,59.34-6.18c5.82-0.39,11.67-0.72,17.51-1.1
				c0.09,0.13,0.16,0.25,0.24,0.38C453.49,561.03,452.27,561.19,451.03,561.28z M485.33,559.28c-0.97,0.06-2.01-0.04-3.03-0.07
				c1.03-0.31,2.06-0.37,3.08-0.45c16.48-1.35,33.05-2.57,49.44-4.08c8.93-0.83,17.68-2.05,24.58-4.58c0.25,0.1,0.51,0.18,0.76,0.27
				c-2.25,0.73-4.3,1.59-6.82,2.13c-3.78,0.81-7.81,1.51-11.92,2.06C523.24,556.99,504.3,558.17,485.33,559.28z"/>
		</g>
	</g>
</g>
</svg>
